# xmcd
#
# Track frame offsets: 
#        150
#        13194
#        27993
#        39990
#        54677
#        72581
#        86767
#        101691
#        115931
#        132470
#        146571
#        159446
#
# Disc length: 2337 seconds
#
# Revision: 0
# Processed by: cddbd v1.5.2PL0 Copyright (c) Steve Scherf et al.
# Submitted via: ExactAudioCopy v0.99pb3
#
DISCID=aa091f0c
DTITLE=Duane Schurb - Best of Duane Schurb Vol. 1
DYEAR=2007
DGENRE=Pop
TTITLE0=Too Blind To See
TTITLE1=Talkin To The Wall
TTITLE2=Show Me
TTITLE3=Swamp Pop Oldies
TTITLE4=Come On Home
TTITLE5=Let's Talk About Memories
TTITLE6=The Jamacia
TTITLE7=Don't Close The Door
TTITLE8=Your Love
TTITLE9=I'll Come Runnin
TTITLE10=The Flame Keeps Burnin
TTITLE11=She Said Goodbye
EXTD=
EXTT0=
EXTT1=
EXTT2=
EXTT3=
EXTT4=
EXTT5=
EXTT6=
EXTT7=
EXTT8=
EXTT9=
EXTT10=
EXTT11=
PLAYORDER=
